<svg width="2701" height="2026" viewBox="0 0 2701 2026" fill="none" xmlns="http://www.w3.org/2000/svg">
<rect width="2701" height="2026" rx="754" fill="#0F0F12"/>
<mask id="path-2-outside-1_207_58" maskUnits="userSpaceOnUse" x="642" y="301" width="1454" height="1462" fill="black">
<rect fill="white" x="642" y="301" width="1454" height="1462"/>
<path fill-rule="evenodd" clip-rule="evenodd" d="M1488.2 1033.72L1185.32 697.368C1154.71 663.373 1098.3 684.935 1098.16 730.681L1095.74 1562.78C1095.66 1590.51 1118.16 1613 1145.89 1612.92L1156.48 1612.89C1183.98 1612.81 1206.25 1590.54 1206.33 1563.04L1207.25 1248.1L1207.93 1014.41C1208.06 968.505 1264.81 947.029 1295.3 981.346L1839.72 1594C1849.24 1604.72 1862.91 1610.83 1877.24 1610.79L1895.63 1610.73C1938.85 1610.61 1961.56 1559.4 1932.64 1527.28L1569.03 1123.48C1707.58 1078.86 1807.82 948.887 1807.82 795.5C1807.82 605.238 1653.58 451 1463.32 451H796.322C792.458 451 790.571 455.616 793.264 458.386L872.199 539.577C882.406 550.077 896.427 556 911.07 556H1463.32C1595.59 556 1702.82 663.228 1702.82 795.5C1702.82 919.371 1608.78 1021.28 1488.2 1033.72Z"/>
</mask>
<path d="M1488.2 1033.72L1376.73 1134.1L1427.76 1190.76L1503.6 1182.93L1488.2 1033.72ZM1185.32 697.368L1296.79 596.993L1296.79 596.993L1185.32 697.368ZM1098.16 730.681L948.163 730.244L948.163 730.244L1098.16 730.681ZM1095.74 1562.78L1245.74 1563.21L1245.74 1563.21L1095.74 1562.78ZM1145.89 1612.92L1145.45 1462.92L1145.45 1462.92L1145.89 1612.92ZM1156.48 1612.89L1156.91 1762.89L1156.91 1762.89L1156.48 1612.89ZM1206.33 1563.04L1356.33 1563.47L1356.33 1563.47L1206.33 1563.04ZM1207.25 1248.1L1357.25 1248.53L1357.25 1248.53L1207.25 1248.1ZM1207.93 1014.41L1057.93 1013.98L1057.93 1013.98L1207.93 1014.41ZM1295.3 981.346L1183.18 1080.98L1183.18 1080.98L1295.3 981.346ZM1839.72 1594L1727.59 1693.64L1727.59 1693.64L1839.72 1594ZM1877.24 1610.79L1876.8 1460.79L1876.8 1460.79L1877.24 1610.79ZM1895.63 1610.73L1896.06 1760.73L1896.07 1760.73L1895.63 1610.73ZM1932.64 1527.28L2044.1 1426.9L2044.1 1426.9L1932.64 1527.28ZM1569.03 1123.48L1523.04 980.701L1302.55 1051.71L1457.56 1223.85L1569.03 1123.48ZM793.264 458.386L900.814 353.825L900.814 353.825L793.264 458.386ZM872.199 539.577L979.749 435.016L979.749 435.016L872.199 539.577ZM1599.67 933.349L1296.79 596.993L1073.85 797.743L1376.73 1134.1L1599.67 933.349ZM1296.79 596.993C1174.34 461.015 948.696 547.26 948.163 730.244L1248.16 731.117C1247.9 822.609 1135.07 865.732 1073.85 797.743L1296.79 596.993ZM948.163 730.244L945.74 1562.34L1245.74 1563.21L1248.16 731.117L948.163 730.244ZM945.74 1562.34C945.417 1673.25 1035.41 1763.25 1146.32 1762.92L1145.45 1462.92C1200.9 1462.76 1245.9 1507.76 1245.74 1563.21L945.74 1562.34ZM1146.32 1762.92L1156.91 1762.89L1156.04 1462.89L1145.45 1462.92L1146.32 1762.92ZM1156.91 1762.89C1266.91 1762.57 1356.01 1673.48 1356.33 1563.47L1056.33 1562.6C1056.49 1507.6 1101.04 1463.05 1156.04 1462.89L1156.91 1762.89ZM1356.33 1563.47L1357.25 1248.53L1057.25 1247.66L1056.33 1562.6L1356.33 1563.47ZM1357.25 1248.53L1357.93 1014.85L1057.93 1013.98L1057.25 1247.66L1357.25 1248.53ZM1357.93 1014.85C1357.66 1106.66 1244.17 1149.62 1183.18 1080.98L1407.43 881.708C1285.45 744.441 1058.46 830.346 1057.93 1013.98L1357.93 1014.85ZM1183.18 1080.98L1727.59 1693.64L1951.85 1494.36L1407.43 881.708L1183.18 1080.98ZM1727.59 1693.64C1765.68 1736.5 1820.34 1760.95 1877.68 1760.79L1876.8 1460.79C1905.47 1460.7 1932.8 1472.93 1951.85 1494.36L1727.59 1693.64ZM1877.68 1760.79L1896.06 1760.73L1895.19 1460.73L1876.8 1460.79L1877.68 1760.79ZM1896.07 1760.73C2068.97 1760.23 2159.8 1555.39 2044.1 1426.9L1821.17 1627.65C1763.32 1563.41 1808.74 1460.99 1895.19 1460.73L1896.07 1760.73ZM2044.1 1426.9L1680.49 1023.11L1457.56 1223.85L1821.17 1627.65L2044.1 1426.9ZM1615.01 1266.26C1813.73 1202.26 1957.82 1015.9 1957.82 795.5H1657.82C1657.82 881.872 1601.42 955.462 1523.04 980.701L1615.01 1266.26ZM1957.82 795.5C1957.82 522.395 1736.43 301 1463.32 301V601C1570.74 601 1657.82 688.081 1657.82 795.5H1957.82ZM1463.32 301H796.322V601H1463.32V301ZM796.322 301C655.274 301 593.77 468.375 685.714 562.947L900.814 353.825C987.371 442.857 929.643 601 796.322 601V301ZM685.714 562.947L764.649 644.139L979.749 435.016L900.814 353.825L685.714 562.947ZM764.649 644.139C803.099 683.687 855.911 706 911.07 706V406C936.942 406 961.714 416.466 979.749 435.016L764.649 644.139ZM911.07 706H1463.32V406H911.07V706ZM1463.32 706C1512.75 706 1552.82 746.071 1552.82 795.5H1852.82C1852.82 580.385 1678.44 406 1463.32 406V706ZM1552.82 795.5C1552.82 841.696 1517.7 879.882 1472.8 884.516L1503.6 1182.93C1699.86 1162.67 1852.82 997.046 1852.82 795.5H1552.82Z" fill="white" mask="url(#path-2-outside-1_207_58)"/>
<circle cx="1475" cy="764" r="105" fill="white"/>
</svg>
